<svg width="20" height="20" viewBox="0 0 20 20" fill="none" xmlns="http://www.w3.org/2000/svg">
<path fill-rule="evenodd" clip-rule="evenodd" d="M8.20317 2.67515C4.75874 2.56404 2.02301 5.69719 2.81195 9.25599C3.24559 11.2116 4.83556 12.8016 6.79124 13.2352L6.79337 13.2357C8.40411 13.5975 9.91335 13.2357 11.0801 12.4181L11.087 12.4133C11.9651 11.8117 13.1261 11.9966 13.8336 12.7041L18.4404 17.3109C18.7528 17.6233 18.7528 18.1298 18.4404 18.4422C18.128 18.7547 17.6215 18.7547 17.3091 18.4422L12.7023 13.8354C12.4875 13.6207 12.1771 13.6082 11.994 13.7314C10.4702 14.7975 8.50442 15.2596 6.44381 14.7971C3.8816 14.2285 1.81806 12.1647 1.24988 9.60232C0.231467 5.00837 3.78219 0.931707 8.25476 1.07598C11.7015 1.18717 14.6257 3.93266 14.9485 7.36016C15.0372 8.31459 14.9259 9.23363 14.673 10.0805L14.6621 10.1169L14.3531 10.8789C14.1871 11.2884 13.7206 11.4858 13.3112 11.3198C12.9017 11.1538 12.7044 10.6873 12.8703 10.2778L13.1503 9.58726C13.3417 8.93164 13.4226 8.2315 13.3554 7.50951C13.1081 4.88658 10.8462 2.76041 8.20317 2.67515Z" fill="#3A3A3A"/>
</svg>
